<svg xmlns="http://www.w3.org/2000/svg" viewBox="0 0 200 200"><rect width="200" height="200" rx="44" fill="#FFFFFF"/><circle cx="100" cy="100" r="84" fill="none" stroke="#2563EB" stroke-width="7" stroke-linecap="round" pathLength="100" stroke-dasharray="86 14" transform="rotate(58 100 100)"/><circle cx="144" cy="171" r="9" fill="#2563EB"/><g transform="translate(39.805 128.069) scale(0.038086 -0.038086)"><path d="M520 -16Q396 -16 294.0 48.5Q192 113 132.0 240.5Q72 368 72 558Q72 754 134.5 881.5Q197 1009 298.5 1070.5Q400 1132 517 1132Q606 1132 669.0 1101.5Q732 1071 772.5 1024.0Q813 977 834 926H842V1490H1190V0H846V181H834Q812 131 770.5 86.0Q729 41 667.5 12.5Q606 -16 520 -16ZM639 256Q705 256 752.5 293.5Q800 331 825.0 399.0Q850 467 850 558Q850 651 825.0 718.5Q800 786 752.5 822.5Q705 859 639 859Q572 859 525.5 821.5Q479 784 455.0 716.5Q431 649 431 558Q431 468 455.0 399.5Q479 331 525.5 293.5Q572 256 639 256Z" fill="#0F172A"/><path d="M1421 0V1118H1742L1762 828H1738Q1764 937 1815.5 1004.0Q1867 1071 1935.5 1102.0Q2004 1133 2080 1133Q2200 1133 2273.5 1056.0Q2347 979 2387 804H2348Q2375 921 2433.0 994.0Q2491 1067 2569.0 1100.0Q2647 1133 2731 1133Q2836 1133 2916.5 1087.5Q2997 1042 3043.0 957.5Q3089 873 3089 754V0H2741V675Q2741 760 2696.5 804.0Q2652 848 2583 848Q2534 848 2497.5 826.0Q2461 804 2442.0 764.5Q2423 725 2423 671V0H2088V680Q2088 757 2045.0 802.5Q2002 848 1932 848Q1884 848 1847.5 826.0Q1811 804 1790.5 763.5Q1770 723 1770 664V0Z" fill="#2563EB"/></g></svg>